# xmcd
#
# Track frame offsets: 
#        150
#        13095
#        41402
#        68332
#        94568
#        120001
#        146170
#        172943
#        190882
#        216791
#        242614
#        268928
#
# Disc length: 3942 seconds
#
# Revision: 0
# Processed by: cddbd v1.5.2PL0 Copyright (c) Steve Scherf et al.
# Submitted via: ExactAudioCopy v0.95b4
#
DISCID=990f640c
DTITLE=RAZA - DANCE Vol. III
DYEAR=1900
DGENRE=Native American
TTITLE0=Atuk
TTITLE1=Relampago
TTITLE2=Avin Tusuy
TTITLE3=Paway Anka
TTITLE4=Precious Waters
TTITLE5=Valle del Alto
TTITLE6=Buffalo
TTITLE7=Aubaanaubee
TTITLE8=Chirapaq
TTITLE9=Suenos de Manuel
TTITLE10=Hidden Heritage
TTITLE11=Nina Tusuy
EXTD=
EXTT0=
EXTT1=
EXTT2=
EXTT3=
EXTT4=
EXTT5=
EXTT6=
EXTT7=
EXTT8=
EXTT9=
EXTT10=
EXTT11=
PLAYORDER=
